<svg width="906" height="565" viewBox="0 0 906 565" fill="none" xmlns="http://www.w3.org/2000/svg">
<g id="Frame 1">
<rect width="906" height="565" fill="white"/>
<g id="viz 1" clip-path="url(#clip0)">
<path id="backgorund" d="M703 51H103V451H703V51Z" fill="white"/>
<g id="viz">
<g id="Group">
<path id="Vector" d="M203.5 151.5H453.5" stroke="black"/>
<g id="Group_2">
<path id="Vector_2" d="M214.422 151V145" stroke="black"/>
<text id="Kreis 1" transform="translate(205.886 137.565) rotate(-45)" fill="black" xml:space="preserve" style="white-space: pre" font-family="Roboto" font-size="10" letter-spacing="0em"><tspan x="0" y="9.41797">Kreis 1</tspan></text>
</g>
<g id="Group_3">
<path id="Vector_3" d="M235.072 151V145" stroke="black"/>
<text id="Kreis 2" transform="translate(226.536 137.565) rotate(-45)" fill="black" xml:space="preserve" style="white-space: pre" font-family="Roboto" font-size="10" letter-spacing="0em"><tspan x="0" y="9.41797">Kreis 2</tspan></text>
</g>
<g id="Group_4">
<path id="Vector_4" d="M255.723 151V145" stroke="black"/>
<text id="Kreis 3" transform="translate(247.187 137.565) rotate(-45)" fill="black" xml:space="preserve" style="white-space: pre" font-family="Roboto" font-size="10" letter-spacing="0em"><tspan x="0" y="9.41797">Kreis 3</tspan></text>
</g>
<g id="Group_5">
<path id="Vector_5" d="M276.374 151V145" stroke="black"/>
<text id="Kreis 4" transform="translate(267.837 137.565) rotate(-45)" fill="black" xml:space="preserve" style="white-space: pre" font-family="Roboto" font-size="10" letter-spacing="0em"><tspan x="0" y="9.41797">Kreis 4</tspan></text>
</g>
<g id="Group_6">
<path id="Vector_6" d="M297.024 151V145" stroke="black"/>
<text id="Kreis 5" transform="translate(288.488 137.565) rotate(-45)" fill="black" xml:space="preserve" style="white-space: pre" font-family="Roboto" font-size="10" letter-spacing="0em"><tspan x="0" y="9.41797">Kreis 5</tspan></text>
</g>
<g id="Group_7">
<path id="Vector_7" d="M317.675 151V145" stroke="black"/>
<text id="Kreis 6" transform="translate(309.139 137.565) rotate(-45)" fill="black" xml:space="preserve" style="white-space: pre" font-family="Roboto" font-size="10" letter-spacing="0em"><tspan x="0" y="9.41797">Kreis 6</tspan></text>
</g>
<g id="Group_8">
<path id="Vector_8" d="M338.325 151V145" stroke="black"/>
<text id="Kreis 7" transform="translate(329.789 137.565) rotate(-45)" fill="black" xml:space="preserve" style="white-space: pre" font-family="Roboto" font-size="10" letter-spacing="0em"><tspan x="0" y="9.41797">Kreis 7</tspan></text>
</g>
<g id="Group_9">
<path id="Vector_9" d="M358.976 151V145" stroke="black"/>
<text id="Kreis 8" transform="translate(350.44 137.565) rotate(-45)" fill="black" xml:space="preserve" style="white-space: pre" font-family="Roboto" font-size="10" letter-spacing="0em"><tspan x="0" y="9.41797">Kreis 8</tspan></text>
</g>
<g id="Group_10">
<path id="Vector_10" d="M379.626 151V145" stroke="black"/>
<text id="Kreis 9" transform="translate(371.09 137.565) rotate(-45)" fill="black" xml:space="preserve" style="white-space: pre" font-family="Roboto" font-size="10" letter-spacing="0em"><tspan x="0" y="9.41797">Kreis 9</tspan></text>
</g>
<g id="Group_11">
<path id="Vector_11" d="M400.277 151V145" stroke="black"/>
<text id="Kreis 10" transform="translate(391.741 137.565) rotate(-45)" fill="black" xml:space="preserve" style="white-space: pre" font-family="Roboto" font-size="10" letter-spacing="0em"><tspan x="0" y="9.41797">Kreis 10</tspan></text>
</g>
<g id="Group_12">
<path id="Vector_12" d="M420.928 151V145" stroke="black"/>
<text id="Kreis 11" transform="translate(412.392 137.565) rotate(-45)" fill="black" xml:space="preserve" style="white-space: pre" font-family="Roboto" font-size="10" letter-spacing="0em"><tspan x="0" y="9.41797">Kreis 11</tspan></text>
</g>
<g id="Group_13">
<path id="Vector_13" d="M441.578 151V145" stroke="black"/>
<text id="Kreis 12" transform="translate(433.042 137.565) rotate(-45)" fill="black" xml:space="preserve" style="white-space: pre" font-family="Roboto" font-size="10" letter-spacing="0em"><tspan x="0" y="9.41797">Kreis 12</tspan></text>
</g>
</g>
<g id="Group_14">
<path id="Vector_14" d="M203.5 151.5V401.5" stroke="black"/>
<g id="Group_15">
<path id="Vector_15" d="M203 162.422H197" stroke="black"/>
<text id="Kreis 1_2" fill="black" xml:space="preserve" style="white-space: pre" font-family="Roboto" font-size="10" letter-spacing="0em"><tspan x="163" y="165.04">Kreis 1</tspan></text>
</g>
<g id="Group_16">
<path id="Vector_16" d="M203 183.072H197" stroke="black"/>
<text id="Kreis 2_2" fill="black" xml:space="preserve" style="white-space: pre" font-family="Roboto" font-size="10" letter-spacing="0em"><tspan x="163" y="185.69">Kreis 2</tspan></text>
</g>
<g id="Group_17">
<path id="Vector_17" d="M203 203.723H197" stroke="black"/>
<text id="Kreis 3_2" fill="black" xml:space="preserve" style="white-space: pre" font-family="Roboto" font-size="10" letter-spacing="0em"><tspan x="163" y="206.341">Kreis 3</tspan></text>
</g>
<g id="Group_18">
<path id="Vector_18" d="M203 224.374H197" stroke="black"/>
<text id="Kreis 4_2" fill="black" xml:space="preserve" style="white-space: pre" font-family="Roboto" font-size="10" letter-spacing="0em"><tspan x="163" y="226.992">Kreis 4</tspan></text>
</g>
<g id="Group_19">
<path id="Vector_19" d="M203 245.024H197" stroke="black"/>
<text id="Kreis 5_2" fill="black" xml:space="preserve" style="white-space: pre" font-family="Roboto" font-size="10" letter-spacing="0em"><tspan x="163" y="247.642">Kreis 5</tspan></text>
</g>
<g id="Group_20">
<path id="Vector_20" d="M203 265.675H197" stroke="black"/>
<text id="Kreis 6_2" fill="black" xml:space="preserve" style="white-space: pre" font-family="Roboto" font-size="10" letter-spacing="0em"><tspan x="163" y="268.293">Kreis 6</tspan></text>
</g>
<g id="Group_21">
<path id="Vector_21" d="M203 286.325H197" stroke="black"/>
<text id="Kreis 7_2" fill="black" xml:space="preserve" style="white-space: pre" font-family="Roboto" font-size="10" letter-spacing="0em"><tspan x="163" y="288.943">Kreis 7</tspan></text>
</g>
<g id="Group_22">
<path id="Vector_22" d="M203 306.976H197" stroke="black"/>
<text id="Kreis 8_2" fill="black" xml:space="preserve" style="white-space: pre" font-family="Roboto" font-size="10" letter-spacing="0em"><tspan x="163" y="309.594">Kreis 8</tspan></text>
</g>
<g id="Group_23">
<path id="Vector_23" d="M203 327.626H197" stroke="black"/>
<text id="Kreis 9_2" fill="black" xml:space="preserve" style="white-space: pre" font-family="Roboto" font-size="10" letter-spacing="0em"><tspan x="163" y="330.244">Kreis 9</tspan></text>
</g>
<g id="Group_24">
<path id="Vector_24" d="M203 348.277H197" stroke="black"/>
<text id="Kreis 10_2" fill="black" xml:space="preserve" style="white-space: pre" font-family="Roboto" font-size="10" letter-spacing="0em"><tspan x="157" y="350.895">Kreis 10</tspan></text>
</g>
<g id="Group_25">
<path id="Vector_25" d="M203 368.928H197" stroke="black"/>
<text id="Kreis 11_2" fill="black" xml:space="preserve" style="white-space: pre" font-family="Roboto" font-size="10" letter-spacing="0em"><tspan x="157" y="371.546">Kreis 11</tspan></text>
</g>
<g id="Group_26">
<path id="Vector_26" d="M203 389.578H197" stroke="black"/>
<text id="Kreis 12_2" fill="black" xml:space="preserve" style="white-space: pre" font-family="Roboto" font-size="10" letter-spacing="0em"><tspan x="157" y="392.196">Kreis 12</tspan></text>
</g>
</g>
<text id="KreisBisherCd" fill="#7B7B7B" xml:space="preserve" style="white-space: pre" font-family="Roboto" font-size="12" letter-spacing="0em"><tspan x="118" y="141.102">KreisBisherCd</tspan></text>
<text id="KreisCd" transform="translate(453.515 137.616) rotate(-45)" fill="#7B7B7B" xml:space="preserve" style="white-space: pre" font-family="Roboto" font-size="12" letter-spacing="0em"><tspan x="0" y="11.1016">KreisCd</tspan></text>
<path id="Vector_27" d="M215.833 160.956H213.386C213.149 160.956 212.956 161.149 212.956 161.386V163.833C212.956 164.07 213.149 164.263 213.386 164.263H215.833C216.07 164.263 216.263 164.07 216.263 163.833V161.386C216.263 161.149 216.07 160.956 215.833 160.956Z" fill="#F2F8FD"/>
<path id="Vector_28" d="M236.293 161.214H234.227C234.027 161.214 233.864 161.376 233.864 161.577V163.643C233.864 163.843 234.027 164.006 234.227 164.006H236.293C236.494 164.006 236.656 163.843 236.656 163.643V161.577C236.656 161.376 236.494 161.214 236.293 161.214Z" fill="#F4F9FE"/>
<path id="Vector_29" d="M256.969 161.18H254.853C254.648 161.18 254.481 161.346 254.481 161.552V163.668C254.481 163.873 254.648 164.039 254.853 164.039H256.969C257.174 164.039 257.34 163.873 257.34 163.668V161.552C257.34 161.346 257.174 161.18 256.969 161.18Z" fill="#F3F9FE"/>
<path id="Vector_30" d="M277.921 160.773H275.202C274.938 160.773 274.724 160.986 274.724 161.25V163.969C274.724 164.233 274.938 164.447 275.202 164.447H277.921C278.185 164.447 278.398 164.233 278.398 163.969V161.25C278.398 160.986 278.185 160.773 277.921 160.773Z" fill="#F0F7FD"/>
<path id="Vector_31" d="M298.002 161.542H296.422C296.268 161.542 296.144 161.666 296.144 161.819V163.4C296.144 163.553 296.268 163.678 296.422 163.678H298.002C298.156 163.678 298.28 163.553 298.28 163.4V161.819C298.28 161.666 298.156 161.542 298.002 161.542Z" fill="#F5FAFE"/>
<path id="Vector_32" d="M318.914 161.188H316.811C316.607 161.188 316.441 161.354 316.441 161.558V163.661C316.441 163.866 316.607 164.031 316.811 164.031H318.914C319.118 164.031 319.284 163.866 319.284 163.661V161.558C319.284 161.354 319.118 161.188 318.914 161.188Z" fill="#F3F9FE"/>
<path id="Vector_33" d="M339.648 161.076H337.378C337.158 161.076 336.979 161.254 336.979 161.475V163.745C336.979 163.965 337.158 164.144 337.378 164.144H339.648C339.869 164.144 340.047 163.965 340.047 163.745V161.475C340.047 161.254 339.869 161.076 339.648 161.076Z" fill="#F3F8FE"/>
<path id="Vector_34" d="M360.145 161.283H358.182C357.992 161.283 357.838 161.438 357.838 161.628V163.591C357.838 163.781 357.992 163.936 358.182 163.936H360.145C360.336 163.936 360.49 163.781 360.49 163.591V161.628C360.49 161.438 360.336 161.283 360.145 161.283Z" fill="#F4F9FE"/>
<path id="Vector_35" d="M380.66 161.466H378.968C378.804 161.466 378.671 161.599 378.671 161.764V163.456C378.671 163.62 378.804 163.753 378.968 163.753H380.66C380.825 163.753 380.958 163.62 380.958 163.456V161.764C380.958 161.599 380.825 161.466 380.66 161.466Z" fill="#F5FAFE"/>
<path id="Vector_36" d="M401.213 161.599H399.717C399.572 161.599 399.454 161.716 399.454 161.862V163.358C399.454 163.503 399.572 163.621 399.717 163.621H401.213C401.358 163.621 401.476 163.503 401.476 163.358V161.862C401.476 161.716 401.358 161.599 401.213 161.599Z" fill="#F6FAFF"/>
<path id="Vector_37" d="M422.18 161.172H420.051C419.845 161.172 419.678 161.339 419.678 161.546V163.674C419.678 163.88 419.845 164.048 420.051 164.048H422.18C422.386 164.048 422.553 163.88 422.553 163.674V161.546C422.553 161.339 422.386 161.172 422.18 161.172Z" fill="#F3F9FE"/>
<path id="Vector_38" d="M442.236 161.974H441.296C441.204 161.974 441.13 162.048 441.13 162.139V163.08C441.13 163.171 441.204 163.245 441.296 163.245H442.236C442.328 163.245 442.402 163.171 442.402 163.08V162.139C442.402 162.048 442.328 161.974 442.236 161.974Z" fill="#F7FBFF"/>
<path id="Vector_39" d="M215.636 181.873H213.583C213.384 181.873 213.222 182.034 213.222 182.233V184.287C213.222 184.486 213.384 184.648 213.583 184.648H215.636C215.836 184.648 215.997 184.486 215.997 184.287V182.233C215.997 182.034 215.836 181.873 215.636 181.873Z" fill="#F4F9FE"/>
<path id="Vector_40" d="M239.407 177.657H231.114C230.309 177.657 229.657 178.309 229.657 179.114V187.407C229.657 188.211 230.309 188.863 231.114 188.863H239.407C240.211 188.863 240.863 188.211 240.863 187.407V179.114C240.863 178.309 240.211 177.657 239.407 177.657Z" fill="#A5CCE4"/>
<path id="Vector_41" d="M258.066 180.347H253.755C253.337 180.347 252.998 180.686 252.998 181.105V185.416C252.998 185.834 253.337 186.173 253.755 186.173H258.066C258.485 186.173 258.824 185.834 258.824 185.416V181.105C258.824 180.686 258.485 180.347 258.066 180.347Z" fill="#E5EFF9"/>
<path id="Vector_42" d="M278.34 180.857H274.783C274.438 180.857 274.158 181.137 274.158 181.482V185.039C274.158 185.384 274.438 185.663 274.783 185.663H278.34C278.685 185.663 278.965 185.384 278.965 185.039V181.482C278.965 181.137 278.685 180.857 278.34 180.857Z" fill="#EBF3FB"/>
<path id="Vector_43" d="M298.294 181.798H296.13C295.92 181.798 295.749 181.968 295.749 182.178V184.343C295.749 184.553 295.92 184.723 296.13 184.723H298.294C298.504 184.723 298.675 184.553 298.675 184.343V182.178C298.675 181.968 298.504 181.798 298.294 181.798Z" fill="#F3F8FE"/>
<path id="Vector_44" d="M319.283 181.341H316.442C316.167 181.341 315.943 181.564 315.943 181.84V184.681C315.943 184.956 316.167 185.18 316.442 185.18H319.283C319.558 185.18 319.782 184.956 319.782 184.681V181.84C319.782 181.564 319.558 181.341 319.283 181.341Z" fill="#F0F6FD"/>
<path id="Vector_45" d="M339.996 181.256H337.03C336.742 181.256 336.509 181.489 336.509 181.777V184.743C336.509 185.031 336.742 185.264 337.03 185.264H339.996C340.284 185.264 340.517 185.031 340.517 184.743V181.777C340.517 181.489 340.284 181.256 339.996 181.256Z" fill="#EFF6FC"/>
<path id="Vector_46" d="M360.629 181.28H357.698C357.414 181.28 357.183 181.51 357.183 181.795V184.726C357.183 185.01 357.414 185.241 357.698 185.241H360.629C360.914 185.241 361.144 185.01 361.144 184.726V181.795C361.144 181.51 360.914 181.28 360.629 181.28Z" fill="#EFF6FC"/>
<path id="Vector_47" d="M381.567 180.892H378.062C377.722 180.892 377.446 181.168 377.446 181.508V185.013C377.446 185.353 377.722 185.629 378.062 185.629H381.567C381.907 185.629 382.183 185.353 382.183 185.013V181.508C382.183 181.168 381.907 180.892 381.567 180.892Z" fill="#EBF3FB"/>
<path id="Vector_48" d="M401.786 181.476H399.144C398.888 181.476 398.68 181.683 398.68 181.94V184.581C398.68 184.837 398.888 185.045 399.144 185.045H401.786C402.042 185.045 402.249 184.837 402.249 184.581V181.94C402.249 181.683 402.042 181.476 401.786 181.476Z" fill="#F1F7FD"/>
<path id="Vector_49" d="M422.962 180.765H419.269C418.911 180.765 418.62 181.055 418.62 181.414V185.107C418.62 185.465 418.911 185.756 419.269 185.756H422.962C423.32 185.756 423.611 185.465 423.611 185.107V181.414C423.611 181.055 423.32 180.765 422.962 180.765Z" fill="#EAF3FB"/>
<path id="Vector_50" d="M442.836 181.814H440.696C440.488 181.814 440.32 181.982 440.32 182.19V184.33C440.32 184.538 440.488 184.706 440.696 184.706H442.836C443.044 184.706 443.212 184.538 443.212 184.33V182.19C443.212 181.982 443.044 181.814 442.836 181.814Z" fill="#F3F9FE"/>
<path id="Vector_51" d="M215.68 202.465H213.539C213.332 202.465 213.163 202.633 213.163 202.841V204.981C213.163 205.189 213.332 205.357 213.539 205.357H215.68C215.887 205.357 216.056 205.189 216.056 204.981V202.841C216.056 202.633 215.887 202.465 215.68 202.465Z" fill="#F3F9FE"/>
<path id="Vector_52" d="M237.829 200.44H232.692C232.193 200.44 231.789 200.844 231.789 201.342V206.48C231.789 206.978 232.193 207.382 232.692 207.382H237.829C238.327 207.382 238.732 206.978 238.732 206.48V201.342C238.732 200.844 238.327 200.44 237.829 200.44Z" fill="#DDEAF7"/>
<path id="Vector_53" d="M261.067 196.943H250.754C249.754 196.943 248.943 197.754 248.943 198.754V209.067C248.943 210.068 249.754 210.879 250.754 210.879H261.067C262.068 210.879 262.879 210.068 262.879 209.067V198.754C262.879 197.754 262.068 196.943 261.067 196.943Z" fill="#5DA4D0"/>
<path id="Vector_54" d="M279.443 200.017H273.68C273.121 200.017 272.667 200.47 272.667 201.029V206.792C272.667 207.352 273.121 207.805 273.68 207.805H279.443C280.002 207.805 280.455 207.352 280.455 206.792V201.029C280.455 200.47 280.002 200.017 279.443 200.017Z" fill="#D6E6F4"/>
<path id="Vector_55" d="M298.923 201.598H295.501C295.169 201.598 294.9 201.868 294.9 202.2V205.622C294.9 205.954 295.169 206.223 295.501 206.223H298.923C299.255 206.223 299.524 205.954 299.524 205.622V202.2C299.524 201.868 299.255 201.598 298.923 201.598Z" fill="#ECF4FB"/>
<path id="Vector_56" d="M319.699 201.43H316.027C315.67 201.43 315.382 201.719 315.382 202.075V205.747C315.382 206.103 315.67 206.392 316.027 206.392H319.699C320.055 206.392 320.344 206.103 320.344 205.747V202.075C320.344 201.719 320.055 201.43 319.699 201.43Z" fill="#EAF3FB"/>
<path id="Vector_57" d="M340.221 201.603H336.806C336.474 201.603 336.206 201.872 336.206 202.203V205.618C336.206 205.95 336.474 206.218 336.806 206.218H340.221C340.552 206.218 340.82 205.95 340.82 205.618V202.203C340.82 201.872 340.552 201.603 340.221 201.603Z" fill="#ECF4FB"/>
<path id="Vector_58" d="M360.479 202.133H357.848C357.593 202.133 357.386 202.34 357.386 202.595V205.226C357.386 205.482 357.593 205.689 357.848 205.689H360.479C360.735 205.689 360.942 205.482 360.942 205.226V202.595C360.942 202.34 360.735 202.133 360.479 202.133Z" fill="#F1F7FD"/>
<path id="Vector_59" d="M383.051 199.537H376.578C375.949 199.537 375.44 200.046 375.44 200.674V207.148C375.44 207.776 375.949 208.285 376.578 208.285H383.051C383.679 208.285 384.188 207.776 384.188 207.148V200.674C384.188 200.046 383.679 199.537 383.051 199.537Z" fill="#CCE0F1"/>
<path id="Vector_60" d="M402.727 200.855H398.203C397.764 200.855 397.409 201.21 397.409 201.649V206.172C397.409 206.611 397.764 206.967 398.203 206.967H402.727C403.165 206.967 403.521 206.611 403.521 206.172V201.649C403.521 201.21 403.165 200.855 402.727 200.855Z" fill="#E3EEF9"/>
<path id="Vector_61" d="M423.389 200.839H418.842C418.401 200.839 418.044 201.197 418.044 201.638V206.184C418.044 206.625 418.401 206.983 418.842 206.983H423.389C423.83 206.983 424.187 206.625 424.187 206.184V201.638C424.187 201.197 423.83 200.839 423.389 200.839Z" fill="#E3EEF8"/>
<path id="Vector_62" d="M443.177 202.004H440.355C440.081 202.004 439.859 202.226 439.859 202.5V205.322C439.859 205.596 440.081 205.818 440.355 205.818H443.177C443.451 205.818 443.673 205.596 443.673 205.322V202.5C443.673 202.226 443.451 202.004 443.177 202.004Z" fill="#F0F6FD"/>
<path id="Vector_63" d="M215.716 223.067H213.504C213.289 223.067 213.115 223.241 213.115 223.455V225.667C213.115 225.882 213.289 226.056 213.504 226.056H215.716C215.93 226.056 216.104 225.882 216.104 225.667V223.455C216.104 223.241 215.93 223.067 215.716 223.067Z" fill="#F3F8FE"/>
<path id="Vector_64" d="M237.06 222.129H233.46C233.111 222.129 232.828 222.412 232.828 222.761V226.362C232.828 226.711 233.111 226.994 233.46 226.994H237.06C237.41 226.994 237.693 226.711 237.693 226.362V222.761C237.693 222.412 237.41 222.129 237.06 222.129Z" fill="#EBF3FB"/>
<path id="Vector_65" d="M259.268 220.025H252.554C251.902 220.025 251.374 220.553 251.374 221.204V227.919C251.374 228.57 251.902 229.098 252.554 229.098H259.268C259.919 229.098 260.448 228.57 260.448 227.919V221.204C260.448 220.553 259.919 220.025 259.268 220.025Z" fill="#C9DEF0"/>
<path id="Vector_66" d="M280.427 219.338H272.696C271.946 219.338 271.338 219.946 271.338 220.696V228.427C271.338 229.177 271.946 229.785 272.696 229.785H280.427C281.177 229.785 281.785 229.177 281.785 228.427V220.696C281.785 219.946 281.177 219.338 280.427 219.338Z" fill="#B4D3E9"/>
<path id="Vector_67" d="M299.138 221.959H295.286C294.912 221.959 294.609 222.262 294.609 222.635V226.487C294.609 226.861 294.912 227.164 295.286 227.164H299.138C299.512 227.164 299.815 226.861 299.815 226.487V222.635C299.815 222.262 299.512 221.959 299.138 221.959Z" fill="#E9F2FA"/>
<path id="Vector_68" d="M319.788 221.959H315.937C315.563 221.959 315.26 222.262 315.26 222.635V226.487C315.26 226.861 315.563 227.164 315.937 227.164H319.788C320.162 227.164 320.465 226.861 320.465 226.487V222.635C320.465 222.262 320.162 221.959 319.788 221.959Z" fill="#E9F2FA"/>
<path id="Vector_69" d="M340.205 222.275H336.821C336.493 222.275 336.227 222.541 336.227 222.869V226.254C336.227 226.582 336.493 226.848 336.821 226.848H340.205C340.534 226.848 340.8 226.582 340.8 226.254V222.869C340.8 222.541 340.534 222.275 340.205 222.275Z" fill="#ECF4FC"/>
<path id="Vector_70" d="M360.398 222.894H357.93C357.69 222.894 357.496 223.088 357.496 223.327V225.795C357.496 226.035 357.69 226.229 357.93 226.229H360.398C360.637 226.229 360.831 226.035 360.831 225.795V223.327C360.831 223.088 360.637 222.894 360.398 222.894Z" fill="#F2F8FD"/>
<path id="Vector_71" d="M382.365 221.114H377.263C376.768 221.114 376.367 221.515 376.367 222.01V227.112C376.367 227.607 376.768 228.009 377.263 228.009H382.365C382.86 228.009 383.262 227.607 383.262 227.112V222.01C383.262 221.515 382.86 221.114 382.365 221.114Z" fill="#DDEAF7"/>
<path id="Vector_72" d="M402.486 221.83H398.443C398.051 221.83 397.733 222.148 397.733 222.54V226.583C397.733 226.975 398.051 227.293 398.443 227.293H402.486C402.879 227.293 403.197 226.975 403.197 226.583V222.54C403.197 222.148 402.879 221.83 402.486 221.83Z" fill="#E7F1FA"/>
<path id="Vector_73" d="M423.169 221.786H419.062C418.664 221.786 418.341 222.109 418.341 222.508V226.615C418.341 227.013 418.664 227.336 419.062 227.336H423.169C423.567 227.336 423.89 227.013 423.89 226.615V222.508C423.89 222.109 423.567 221.786 423.169 221.786Z" fill="#E7F0FA"/>
<path id="Vector_74" d="M443.026 222.859H440.506C440.262 222.859 440.063 223.057 440.063 223.301V225.821C440.063 226.066 440.262 226.264 440.506 226.264H443.026C443.271 226.264 443.469 226.066 443.469 225.821V223.301C443.469 223.057 443.271 222.859 443.026 222.859Z" fill="#F1F7FD"/>
<path id="Vector_75" d="M215.408 244.133H213.811C213.656 244.133 213.53 244.258 213.53 244.413V246.011C213.53 246.166 213.656 246.291 213.811 246.291H215.408C215.563 246.291 215.689 246.166 215.689 246.011V244.413C215.689 244.258 215.563 244.133 215.408 244.133Z" fill="#F5FAFE"/>
<path id="Vector_76" d="M236.541 243.481H233.98C233.731 243.481 233.53 243.683 233.53 243.931V246.493C233.53 246.741 233.731 246.942 233.98 246.942H236.541C236.789 246.942 236.991 246.741 236.991 246.493V243.931C236.991 243.683 236.789 243.481 236.541 243.481Z" fill="#F1F7FD"/>
<path id="Vector_77" d="M257.607 242.92H254.215C253.886 242.92 253.619 243.187 253.619 243.516V246.908C253.619 247.237 253.886 247.504 254.215 247.504H257.607C257.936 247.504 258.203 247.237 258.203 246.908V243.516C258.203 243.187 257.936 242.92 257.607 242.92Z" fill="#ECF4FB"/>
<path id="Vector_78" d="M278.484 242.614H274.639C274.266 242.614 273.963 242.916 273.963 243.289V247.135C273.963 247.508 274.266 247.81 274.639 247.81H278.484C278.857 247.81 279.159 247.508 279.159 247.135V243.289C279.159 242.916 278.857 242.614 278.484 242.614Z" fill="#E9F2FA"/>
<path id="Vector_79" d="M299.448 242.191H294.976C294.543 242.191 294.191 242.543 294.191 242.976V247.448C294.191 247.881 294.543 248.233 294.976 248.233H299.448C299.881 248.233 300.233 247.881 300.233 247.448V242.976C300.233 242.543 299.881 242.191 299.448 242.191Z" fill="#E3EEF9"/>
<path id="Vector_80" d="M319.324 243.238H316.402C316.118 243.238 315.888 243.468 315.888 243.751V246.673C315.888 246.956 316.118 247.186 316.402 247.186H319.324C319.607 247.186 319.837 246.956 319.837 246.673V243.751C319.837 243.468 319.607 243.238 319.324 243.238Z" fill="#EFF6FC"/>
<path id="Vector_81" d="M339.613 243.725H337.413C337.2 243.725 337.026 243.898 337.026 244.112V246.312C337.026 246.526 337.2 246.699 337.413 246.699H339.613C339.827 246.699 340 246.526 340 246.312V244.112C340 243.898 339.827 243.725 339.613 243.725Z" fill="#F3F8FE"/>
<path id="Vector_82" d="M360.055 244.008H358.273C358.1 244.008 357.96 244.148 357.96 244.321V246.103C357.96 246.276 358.1 246.416 358.273 246.416H360.055C360.228 246.416 360.368 246.276 360.368 246.103V244.321C360.368 244.148 360.228 244.008 360.055 244.008Z" fill="#F5F9FE"/>
<path id="Vector_83" d="M381.42 243.043H378.209C377.898 243.043 377.645 243.295 377.645 243.607V246.817C377.645 247.129 377.898 247.381 378.209 247.381H381.42C381.731 247.381 381.984 247.129 381.984 246.817V243.607C381.984 243.295 381.731 243.043 381.42 243.043Z" fill="#EDF5FC"/>
<path id="Vector_84" d="M402.153 242.931H398.777C398.449 242.931 398.183 243.196 398.183 243.524V246.9C398.183 247.228 398.449 247.493 398.777 247.493H402.153C402.481 247.493 402.746 247.228 402.746 246.9V243.524C402.746 243.196 402.481 242.931 402.153 242.931Z" fill="#ECF4FC"/>
<path id="Vector_85" d="M422.527 243.305H419.704C419.431 243.305 419.209 243.527 419.209 243.801V246.623C419.209 246.897 419.431 247.119 419.704 247.119H422.527C422.8 247.119 423.022 246.897 423.022 246.623V243.801C423.022 243.527 422.8 243.305 422.527 243.305Z" fill="#F0F6FD"/>
<path id="Vector_86" d="M442.657 244.008H440.875C440.702 244.008 440.562 244.148 440.562 244.321V246.103C440.562 246.276 440.702 246.416 440.875 246.416H442.657C442.83 246.416 442.97 246.276 442.97 246.103V244.321C442.97 244.148 442.83 244.008 442.657 244.008Z" fill="#F5F9FE"/>
<path id="Vector_87" d="M215.611 264.51H213.609C213.414 264.51 213.257 264.667 213.257 264.862V266.864C213.257 267.058 213.414 267.215 213.609 267.215H215.611C215.805 267.215 215.962 267.058 215.962 266.864V264.862C215.962 264.667 215.805 264.51 215.611 264.51Z" fill="#F4F9FE"/>
<path id="Vector_88" d="M236.653 263.981H233.868C233.597 263.981 233.378 264.2 233.378 264.47V267.255C233.378 267.525 233.597 267.744 233.868 267.744H236.653C236.923 267.744 237.142 267.525 237.142 267.255V264.47C237.142 264.2 236.923 263.981 236.653 263.981Z" fill="#F0F6FD"/>
<path id="Vector_89" d="M257.883 263.197H253.938C253.555 263.197 253.245 263.507 253.245 263.89V267.835C253.245 268.218 253.555 268.528 253.938 268.528H257.883C258.266 268.528 258.577 268.218 258.577 267.835V263.89C258.577 263.507 258.266 263.197 257.883 263.197Z" fill="#E8F1FA"/>
<path id="Vector_90" d="M278.443 263.32H274.68C274.315 263.32 274.019 263.616 274.019 263.981V267.744C274.019 268.109 274.315 268.405 274.68 268.405H278.443C278.808 268.405 279.104 268.109 279.104 267.744V263.981C279.104 263.616 278.808 263.32 278.443 263.32Z" fill="#E9F2FB"/>
<path id="Vector_91" d="M298.518 264.098H295.906C295.653 264.098 295.447 264.303 295.447 264.557V267.168C295.447 267.422 295.653 267.627 295.906 267.627H298.518C298.771 267.627 298.976 267.422 298.976 267.168V264.557C298.976 264.303 298.771 264.098 298.518 264.098Z" fill="#F1F7FD"/>
<path id="Vector_92" d="M321.689 260.692H314.036C313.294 260.692 312.692 261.294 312.692 262.036V269.689C312.692 270.431 313.294 271.033 314.036 271.033H321.689C322.432 271.033 323.033 270.431 323.033 269.689V262.036C323.033 261.294 322.432 260.692 321.689 260.692Z" fill="#B6D4E9"/>
<path id="Vector_93" d="M340.737 262.857H336.289C335.858 262.857 335.508 263.207 335.508 263.639V268.086C335.508 268.518 335.858 268.868 336.289 268.868H340.737C341.169 268.868 341.518 268.518 341.518 268.086V263.639C341.518 263.207 341.169 262.857 340.737 262.857Z" fill="#E4EEF9"/>
<path id="Vector_94" d="M360.464 264.105H357.863C357.611 264.105 357.406 264.309 357.406 264.562V267.163C357.406 267.416 357.611 267.62 357.863 267.62H360.464C360.717 267.62 360.921 267.416 360.921 267.163V264.562C360.921 264.309 360.717 264.105 360.464 264.105Z" fill="#F1F7FD"/>
<path id="Vector_95" d="M381.506 263.576H378.122C377.794 263.576 377.528 263.842 377.528 264.17V267.555C377.528 267.883 377.794 268.149 378.122 268.149H381.506C381.835 268.149 382.101 267.883 382.101 267.555V264.17C382.101 263.842 381.835 263.576 381.506 263.576Z" fill="#ECF4FC"/>
<path id="Vector_96" d="M402.632 262.933H398.297C397.877 262.933 397.536 263.274 397.536 263.695V268.03C397.536 268.451 397.877 268.792 398.297 268.792H402.632C403.053 268.792 403.394 268.451 403.394 268.03V263.695C403.394 263.274 403.053 262.933 402.632 262.933Z" fill="#E5EFF9"/>
<path id="Vector_97" d="M423.889 262.115H418.342C417.804 262.115 417.368 262.551 417.368 263.089V268.636C417.368 269.174 417.804 269.61 418.342 269.61H423.889C424.427 269.61 424.863 269.174 424.863 268.636V263.089C424.863 262.551 424.427 262.115 423.889 262.115Z" fill="#D8E7F5"/>
<path id="Vector_98" d="M443.496 263.525H440.036C439.7 263.525 439.428 263.797 439.428 264.132V267.593C439.428 267.928 439.7 268.201 440.036 268.201H443.496C443.832 268.201 444.104 267.928 444.104 267.593V264.132C444.104 263.797 443.832 263.525 443.496 263.525Z" fill="#ECF4FB"/>
<path id="Vector_99" d="M215.649 285.109H213.57C213.369 285.109 213.205 285.272 213.205 285.474V287.552C213.205 287.754 213.369 287.918 213.57 287.918H215.649C215.851 287.918 216.014 287.754 216.014 287.552V285.474C216.014 285.272 215.851 285.109 215.649 285.109Z" fill="#F3F9FE"/>
<path id="Vector_100" d="M236.769 284.474H233.751C233.458 284.474 233.221 284.711 233.221 285.004V288.022C233.221 288.315 233.458 288.553 233.751 288.553H236.769C237.062 288.553 237.3 288.315 237.3 288.022V285.004C237.3 284.711 237.062 284.474 236.769 284.474Z" fill="#EEF6FC"/>
<path id="Vector_101" d="M257.504 284.36H254.318C254.009 284.36 253.758 284.611 253.758 284.92V288.106C253.758 288.415 254.009 288.666 254.318 288.666H257.504C257.813 288.666 258.064 288.415 258.064 288.106V284.92C258.064 284.611 257.813 284.36 257.504 284.36Z" fill="#EDF5FC"/>
<path id="Vector_102" d="M278.134 284.388H274.989C274.684 284.388 274.436 284.636 274.436 284.941V288.086C274.436 288.391 274.684 288.638 274.989 288.638H278.134C278.439 288.638 278.686 288.391 278.686 288.086V284.941C278.686 284.636 278.439 284.388 278.134 284.388Z" fill="#EEF5FC"/>
<path id="Vector_103" d="M298.364 284.956H296.06C295.836 284.956 295.655 285.137 295.655 285.361V287.665C295.655 287.889 295.836 288.07 296.06 288.07H298.364C298.588 288.07 298.769 287.889 298.769 287.665V285.361C298.769 285.137 298.588 284.956 298.364 284.956Z" fill="#F2F8FE"/>
<path id="Vector_104" d="M319.699 284.032H316.027C315.67 284.032 315.382 284.321 315.382 284.677V288.349C315.382 288.705 315.67 288.994 316.027 288.994H319.699C320.055 288.994 320.344 288.705 320.344 288.349V284.677C320.344 284.321 320.055 284.032 319.699 284.032Z" fill="#EAF3FB"/>
<path id="Vector_105" d="M342.774 280.755H334.252C333.425 280.755 332.755 281.425 332.755 282.252V290.774C332.755 291.601 333.425 292.271 334.252 292.271H342.774C343.601 292.271 344.271 291.601 344.271 290.774V282.252C344.271 281.425 343.601 280.755 342.774 280.755Z" fill="#9EC9E2"/>
<path id="Vector_106" d="M361.106 283.888H357.221C356.844 283.888 356.538 284.193 356.538 284.57V288.456C356.538 288.833 356.844 289.138 357.221 289.138H361.106C361.483 289.138 361.789 288.833 361.789 288.456V284.57C361.789 284.193 361.483 283.888 361.106 283.888Z" fill="#E8F2FA"/>
<path id="Vector_107" d="M381.387 284.388H378.242C377.937 284.388 377.689 284.636 377.689 284.941V288.086C377.689 288.391 377.937 288.638 378.242 288.638H381.387C381.692 288.638 381.939 288.391 381.939 288.086V284.941C381.939 284.636 381.692 284.388 381.387 284.388Z" fill="#EEF5FC"/>
<path id="Vector_108" d="M401.961 284.491H398.969C398.678 284.491 398.443 284.727 398.443 285.017V288.009C398.443 288.3 398.678 288.535 398.969 288.535H401.961C402.251 288.535 402.487 288.3 402.487 288.009V285.017C402.487 284.727 402.251 284.491 401.961 284.491Z" fill="#EFF6FC"/>
<path id="Vector_109" d="M422.93 284.061H419.301C418.949 284.061 418.663 284.346 418.663 284.699V288.328C418.663 288.68 418.949 288.965 419.301 288.965H422.93C423.282 288.965 423.568 288.68 423.568 288.328V284.699C423.568 284.346 423.282 284.061 422.93 284.061Z" fill="#EAF3FB"/>
<path id="Vector_110" d="M442.989 284.86H440.543C440.305 284.86 440.113 285.052 440.113 285.29V287.737C440.113 287.974 440.305 288.166 440.543 288.166H442.989C443.227 288.166 443.419 287.974 443.419 287.737V285.29C443.419 285.052 443.227 284.86 442.989 284.86Z" fill="#F2F8FD"/>
<path id="Vector_111" d="M215.44 306.041H213.779C213.618 306.041 213.487 306.172 213.487 306.333V307.994C213.487 308.155 213.618 308.286 213.779 308.286H215.44C215.601 308.286 215.732 308.155 215.732 307.994V306.333C215.732 306.172 215.601 306.041 215.44 306.041Z" fill="#F5FAFE"/>
<path id="Vector_112" d="M236.446 305.562H234.075C233.845 305.562 233.658 305.748 233.658 305.978V308.349C233.658 308.579 233.845 308.766 234.075 308.766H236.446C236.676 308.766 236.862 308.579 236.862 308.349V305.978C236.862 305.748 236.676 305.562 236.446 305.562Z" fill="#F2F8FD"/>
<path id="Vector_113" d="M257.134 305.511H254.687C254.45 305.511 254.258 305.703 254.258 305.94V308.387C254.258 308.625 254.45 308.817 254.687 308.817H257.134C257.372 308.817 257.564 308.625 257.564 308.387V305.94C257.564 305.703 257.372 305.511 257.134 305.511Z" fill="#F2F8FD"/>
<path id="Vector_114" d="M277.801 305.489H275.322C275.082 305.489 274.887 305.684 274.887 305.924V308.403C274.887 308.643 275.082 308.838 275.322 308.838H277.801C278.041 308.838 278.236 308.643 278.236 308.403V305.924C278.236 305.684 278.041 305.489 277.801 305.489Z" fill="#F2F8FD"/>
<path id="Vector_115" d="M298.058 306.02H296.366C296.202 306.02 296.069 306.154 296.069 306.318V308.01C296.069 308.174 296.202 308.307 296.366 308.307H298.058C298.222 308.307 298.355 308.174 298.355 308.01V306.318C298.355 306.154 298.222 306.02 298.058 306.02Z" fill="#F5FAFE"/>
<path id="Vector_116" d="M319.208 305.346H316.518C316.257 305.346 316.045 305.558 316.045 305.819V308.509C316.045 308.77 316.257 308.981 316.518 308.981H319.208C319.469 308.981 319.68 308.77 319.68 308.509V305.819C319.68 305.558 319.469 305.346 319.208 305.346Z" fill="#F0F7FD"/>
<path id="Vector_117" d="M340.422 304.584H336.604C336.234 304.584 335.933 304.884 335.933 305.255V309.073C335.933 309.443 336.234 309.743 336.604 309.743H340.422C340.793 309.743 341.093 309.443 341.093 309.073V305.255C341.093 304.884 340.793 304.584 340.422 304.584Z" fill="#E9F2FA"/>
<path id="Vector_118" d="M361.825 303.568H356.503C355.987 303.568 355.568 303.987 355.568 304.503V309.825C355.568 310.341 355.987 310.759 356.503 310.759H361.825C362.341 310.759 362.759 310.341 362.759 309.825V304.503C362.759 303.987 362.341 303.568 361.825 303.568Z" fill="#DBE9F6"/>
<path id="Vector_119" d="M381.005 305.554H378.623C378.392 305.554 378.205 305.742 378.205 305.973V308.355C378.205 308.586 378.392 308.773 378.623 308.773H381.005C381.236 308.773 381.424 308.586 381.424 308.355V305.973C381.424 305.742 381.236 305.554 381.005 305.554Z" fill="#F2F8FD"/>
<path id="Vector_120" d="M401.459 305.82H399.47C399.277 305.82 399.121 305.976 399.121 306.169V308.158C399.121 308.351 399.277 308.508 399.47 308.508H401.459C401.652 308.508 401.809 308.351 401.809 308.158V306.169C401.809 305.976 401.652 305.82 401.459 305.82Z" fill="#F4F9FE"/>
<path id="Vector_121" d="M422.339 305.511H419.892C419.655 305.511 419.462 305.703 419.462 305.94V308.387C419.462 308.625 419.655 308.817 419.892 308.817H422.339C422.576 308.817 422.769 308.625 422.769 308.387V305.94C422.769 305.703 422.576 305.511 422.339 305.511Z" fill="#F2F8FD"/>
<path id="Vector_122" d="M442.565 306.085H440.968C440.813 306.085 440.687 306.21 440.687 306.365V307.962C440.687 308.117 440.813 308.243 440.968 308.243H442.565C442.72 308.243 442.845 308.117 442.845 307.962V306.365C442.845 306.21 442.72 306.085 442.565 306.085Z" fill="#F5FAFE"/>
<path id="Vector_123" d="M215.515 326.591H213.704C213.528 326.591 213.386 326.733 213.386 326.909V328.72C213.386 328.896 213.528 329.038 213.704 329.038H215.515C215.691 329.038 215.833 328.896 215.833 328.72V326.909C215.833 326.733 215.691 326.591 215.515 326.591Z" fill="#F5F9FE"/>
<path id="Vector_124" d="M236.979 325.492H233.541C233.208 325.492 232.938 325.762 232.938 326.096V329.533C232.938 329.867 233.208 330.137 233.541 330.137H236.979C237.313 330.137 237.583 329.867 237.583 329.533V326.096C237.583 325.762 237.313 325.492 236.979 325.492Z" fill="#ECF4FB"/>
<path id="Vector_125" d="M258.851 323.842H252.971C252.401 323.842 251.938 324.304 251.938 324.875V330.754C251.938 331.324 252.401 331.787 252.971 331.787H258.851C259.421 331.787 259.883 331.324 259.883 330.754V324.875C259.883 324.304 259.421 323.842 258.851 323.842Z" fill="#D4E5F4"/>
<path id="Vector_126" d="M278.659 324.98H274.464C274.057 324.98 273.727 325.31 273.727 325.717V329.912C273.727 330.319 274.057 330.649 274.464 330.649H278.659C279.066 330.649 279.396 330.319 279.396 329.912V325.717C279.396 325.31 279.066 324.98 278.659 324.98Z" fill="#E6F0F9"/>
<path id="Vector_127" d="M298.498 326.077H295.926C295.677 326.077 295.475 326.279 295.475 326.529V329.1C295.475 329.349 295.677 329.552 295.926 329.552H298.498C298.747 329.552 298.949 329.349 298.949 329.1V326.529C298.949 326.279 298.747 326.077 298.498 326.077Z" fill="#F1F7FD"/>
<path id="Vector_128" d="M319.476 325.634H316.249C315.936 325.634 315.682 325.888 315.682 326.201V329.428C315.682 329.741 315.936 329.995 316.249 329.995H319.476C319.789 329.995 320.043 329.741 320.043 329.428V326.201C320.043 325.888 319.789 325.634 319.476 325.634Z" fill="#EDF5FC"/>
<path id="Vector_129" d="M340.118 325.645H336.908C336.596 325.645 336.344 325.898 336.344 326.209V329.42C336.344 329.731 336.596 329.984 336.908 329.984H340.118C340.43 329.984 340.682 329.731 340.682 329.42V326.209C340.682 325.898 340.43 325.645 340.118 325.645Z" fill="#EDF5FC"/>
<path id="Vector_130" d="M360.316 326.257H358.012C357.788 326.257 357.607 326.439 357.607 326.662V328.966C357.607 329.19 357.788 329.371 358.012 329.371H360.316C360.539 329.371 360.721 329.19 360.721 328.966V326.662C360.721 326.439 360.539 326.257 360.316 326.257Z" fill="#F2F8FE"/>
<path id="Vector_131" d="M385.884 319.612H373.744C372.567 319.612 371.612 320.567 371.612 321.744V333.884C371.612 335.062 372.567 336.017 373.744 336.017H385.884C387.062 336.017 388.017 335.062 388.017 333.884V321.744C388.017 320.567 387.062 319.612 385.884 319.612Z" fill="#216FB2"/>
<path id="Vector_132" d="M402.565 324.976H398.364C397.957 324.976 397.626 325.306 397.626 325.714V329.915C397.626 330.322 397.957 330.653 398.364 330.653H402.565C402.973 330.653 403.303 330.322 403.303 329.915V325.714C403.303 325.306 402.973 324.976 402.565 324.976Z" fill="#E6F0F9"/>
<path id="Vector_133" d="M423.764 324.235H418.467C417.953 324.235 417.536 324.652 417.536 325.166V330.463C417.536 330.977 417.953 331.393 418.467 331.393H423.764C424.278 331.393 424.695 330.977 424.695 330.463V325.166C424.695 324.652 424.278 324.235 423.764 324.235Z" fill="#DBE9F6"/>
<path id="Vector_134" d="M443.591 325.348H439.941C439.587 325.348 439.299 325.635 439.299 325.989V329.64C439.299 329.994 439.587 330.281 439.941 330.281H443.591C443.946 330.281 444.233 329.994 444.233 329.64V325.989C444.233 325.635 443.946 325.348 443.591 325.348Z" fill="#EAF3FB"/>
<path id="Vector_135" d="M215.313 347.515H213.906C213.77 347.515 213.659 347.625 213.659 347.762V349.168C213.659 349.305 213.77 349.415 213.906 349.415H215.313C215.449 349.415 215.56 349.305 215.56 349.168V347.762C215.56 347.625 215.449 347.515 215.313 347.515Z" fill="#F6FAFF"/>
<path id="Vector_136" d="M236.541 346.734H233.98C233.731 346.734 233.53 346.936 233.53 347.184V349.745C233.53 349.994 233.731 350.195 233.98 350.195H236.541C236.789 350.195 236.991 349.994 236.991 349.745V347.184C236.991 346.936 236.789 346.734 236.541 346.734Z" fill="#F1F7FD"/>
<path id="Vector_137" d="M257.757 345.97H254.064C253.706 345.97 253.415 346.26 253.415 346.618V350.311C253.415 350.67 253.706 350.96 254.064 350.96H257.757C258.116 350.96 258.406 350.67 258.406 350.311V346.618C258.406 346.26 258.116 345.97 257.757 345.97Z" fill="#EAF3FB"/>
<path id="Vector_138" d="M278.329 346.077H274.794C274.451 346.077 274.173 346.355 274.173 346.698V350.232C274.173 350.575 274.451 350.853 274.794 350.853H278.329C278.672 350.853 278.95 350.575 278.95 350.232V346.698C278.95 346.355 278.672 346.077 278.329 346.077Z" fill="#EBF3FB"/>
<path id="Vector_139" d="M298.618 346.564H295.805C295.533 346.564 295.311 346.785 295.311 347.058V349.871C295.311 350.144 295.533 350.366 295.805 350.366H298.618C298.891 350.366 299.113 350.144 299.113 349.871V347.058C299.113 346.785 298.891 346.564 298.618 346.564Z" fill="#F0F6FD"/>
<path id="Vector_140" d="M319.802 345.844H315.923C315.547 345.844 315.242 346.149 315.242 346.526V350.404C315.242 350.781 315.547 351.086 315.923 351.086H319.802C320.178 351.086 320.483 350.781 320.483 350.404V346.526C320.483 346.149 320.178 345.844 319.802 345.844Z" fill="#E8F2FA"/>
<path id="Vector_141" d="M340.114 346.301H336.912C336.601 346.301 336.349 346.553 336.349 346.864V350.066C336.349 350.377 336.601 350.629 336.912 350.629H340.114C340.425 350.629 340.677 350.377 340.677 350.066V346.864C340.677 346.553 340.425 346.301 340.114 346.301Z" fill="#EDF5FC"/>
<path id="Vector_142" d="M360.076 347.232H358.251C358.074 347.232 357.93 347.375 357.93 347.552V349.378C357.93 349.555 358.074 349.698 358.251 349.698H360.076C360.253 349.698 360.397 349.555 360.397 349.378V347.552C360.397 347.375 360.253 347.232 360.076 347.232Z" fill="#F4F9FE"/>
<path id="Vector_143" d="M381.924 345.614H377.705C377.295 345.614 376.963 345.946 376.963 346.355V350.575C376.963 350.984 377.295 351.316 377.705 351.316H381.924C382.333 351.316 382.665 350.984 382.665 350.575V346.355C382.665 345.946 382.333 345.614 381.924 345.614Z" fill="#E6F0F9"/>
<path id="Vector_144" d="M404.463 343.063H396.467C395.691 343.063 395.063 343.691 395.063 344.467V352.463C395.063 353.238 395.691 353.867 396.467 353.867H404.463C405.238 353.867 405.867 353.238 405.867 352.463V344.467C405.867 343.691 405.238 343.063 404.463 343.063Z" fill="#ADD0E7"/>
<path id="Vector_145" d="M423.557 345.166H418.674C418.2 345.166 417.816 345.55 417.816 346.023V350.906C417.816 351.38 418.2 351.764 418.674 351.764H423.557C424.031 351.764 424.415 351.38 424.415 350.906V346.023C424.415 345.55 424.031 345.166 423.557 345.166Z" fill="#DFECF7"/>
<path id="Vector_146" d="M442.989 346.812H440.543C440.305 346.812 440.113 347.004 440.113 347.242V349.688C440.113 349.926 440.305 350.118 440.543 350.118H442.989C443.227 350.118 443.419 349.926 443.419 349.688V347.242C443.419 347.004 443.227 346.812 442.989 346.812Z" fill="#F2F8FD"/>
<path id="Vector_147" d="M215.784 367.528H213.435C213.207 367.528 213.022 367.713 213.022 367.941V370.29C213.022 370.518 213.207 370.703 213.435 370.703H215.784C216.012 370.703 216.197 370.518 216.197 370.29V367.941C216.197 367.713 216.012 367.528 215.784 367.528Z" fill="#F2F8FD"/>
<path id="Vector_148" d="M237.176 366.527H233.344C232.973 366.527 232.671 366.828 232.671 367.2V371.031C232.671 371.403 232.973 371.704 233.344 371.704H237.176C237.548 371.704 237.849 371.403 237.849 371.031V367.2C237.849 366.828 237.548 366.527 237.176 366.527Z" fill="#E9F2FA"/>
<path id="Vector_149" d="M258.149 366.091H253.672C253.238 366.091 252.886 366.443 252.886 366.877V371.354C252.886 371.788 253.238 372.14 253.672 372.14H258.149C258.584 372.14 258.936 371.788 258.936 371.354V366.877C258.936 366.443 258.584 366.091 258.149 366.091Z" fill="#E3EEF9"/>
<path id="Vector_150" d="M278.69 366.24H274.433C274.02 366.24 273.686 366.574 273.686 366.987V371.244C273.686 371.657 274.02 371.991 274.433 371.991H278.69C279.103 371.991 279.437 371.657 279.437 371.244V366.987C279.437 366.574 279.103 366.24 278.69 366.24Z" fill="#E5F0F9"/>
<path id="Vector_151" d="M298.571 367.278H295.853C295.589 367.278 295.375 367.492 295.375 367.756V370.475C295.375 370.739 295.589 370.953 295.853 370.953H298.571C298.835 370.953 299.049 370.739 299.049 370.475V367.756C299.049 367.492 298.835 367.278 298.571 367.278Z" fill="#F0F7FD"/>
<path id="Vector_152" d="M320.388 365.703H315.337C314.847 365.703 314.45 366.1 314.45 366.59V371.641C314.45 372.131 314.847 372.528 315.337 372.528H320.388C320.878 372.528 321.275 372.131 321.275 371.641V366.59C321.275 366.1 320.878 365.703 320.388 365.703Z" fill="#DEEBF7"/>
<path id="Vector_153" d="M340.277 366.732H336.749C336.407 366.732 336.13 367.01 336.13 367.352V370.879C336.13 371.221 336.407 371.499 336.749 371.499H340.277C340.619 371.499 340.896 371.221 340.896 370.879V367.352C340.896 367.01 340.619 366.732 340.277 366.732Z" fill="#EBF3FB"/>
<path id="Vector_154" d="M360.449 367.378H357.878C357.629 367.378 357.426 367.58 357.426 367.83V370.401C357.426 370.651 357.629 370.853 357.878 370.853H360.449C360.699 370.853 360.901 370.651 360.901 370.401V367.83C360.901 367.58 360.699 367.378 360.449 367.378Z" fill="#F1F7FD"/>
<path id="Vector_155" d="M382.426 365.587H377.203C376.696 365.587 376.285 365.997 376.285 366.504V371.727C376.285 372.234 376.696 372.644 377.203 372.644H382.426C382.933 372.644 383.343 372.234 383.343 371.727V366.504C383.343 365.997 382.933 365.587 382.426 365.587Z" fill="#DCEAF6"/>
<path id="Vector_156" d="M402.995 365.696H397.934C397.443 365.696 397.045 366.094 397.045 366.585V371.646C397.045 372.137 397.443 372.535 397.934 372.535H402.995C403.486 372.535 403.884 372.137 403.884 371.646V366.585C403.884 366.094 403.486 365.696 402.995 365.696Z" fill="#DEEBF7"/>
<path id="selected" d="M428.084 359.699H414.147C412.795 359.699 411.699 360.795 411.699 362.147V376.084C411.699 377.436 412.795 378.532 414.147 378.532H428.084C429.436 378.532 430.532 377.436 430.532 376.084V362.147C430.532 360.795 429.436 359.699 428.084 359.699Z" fill="#FFC700"/>
<path id="Vector_157" d="M444.842 364.959H438.69C438.093 364.959 437.609 365.443 437.609 366.04V372.191C437.609 372.788 438.093 373.272 438.69 373.272H444.842C445.439 373.272 445.923 372.788 445.923 372.191V366.04C445.923 365.443 445.439 364.959 444.842 364.959Z" fill="#D1E3F3"/>
<path id="Vector_158" d="M215.169 389.011H214.051C213.942 389.011 213.854 389.099 213.854 389.207V390.325C213.854 390.433 213.942 390.521 214.051 390.521H215.169C215.277 390.521 215.365 390.433 215.365 390.325V389.207C215.365 389.099 215.277 389.011 215.169 389.011Z" fill="#F7FBFF"/>
<path id="Vector_159" d="M236.114 388.612H234.407C234.241 388.612 234.107 388.747 234.107 388.912V390.62C234.107 390.785 234.241 390.92 234.407 390.92H236.114C236.28 390.92 236.414 390.785 236.414 390.62V388.912C236.414 388.747 236.28 388.612 236.114 388.612Z" fill="#F5FAFE"/>
<path id="Vector_160" d="M257.124 388.127H254.698C254.463 388.127 254.272 388.318 254.272 388.553V390.979C254.272 391.214 254.463 391.405 254.698 391.405H257.124C257.359 391.405 257.55 391.214 257.55 390.979V388.553C257.55 388.318 257.359 388.127 257.124 388.127Z" fill="#F2F8FD"/>
<path id="Vector_161" d="M277.708 388.217H275.415C275.192 388.217 275.012 388.397 275.012 388.62V390.913C275.012 391.135 275.192 391.315 275.415 391.315H277.708C277.93 391.315 278.111 391.135 278.111 390.913V388.62C278.111 388.397 277.93 388.217 277.708 388.217Z" fill="#F2F8FE"/>
<path id="Vector_162" d="M297.969 388.743H296.455C296.308 388.743 296.189 388.862 296.189 389.009V390.523C296.189 390.67 296.308 390.789 296.455 390.789H297.969C298.116 390.789 298.235 390.67 298.235 390.523V389.009C298.235 388.862 298.116 388.743 297.969 388.743Z" fill="#F6FAFF"/>
<path id="Vector_163" d="M319.406 387.681H316.319C316.02 387.681 315.777 387.923 315.777 388.223V391.309C315.777 391.609 316.02 391.852 316.319 391.852H319.406C319.705 391.852 319.948 391.609 319.948 391.309V388.223C319.948 387.923 319.705 387.681 319.406 387.681Z" fill="#EEF5FC"/>
<path id="Vector_164" d="M339.474 388.467H337.552C337.365 388.467 337.214 388.618 337.214 388.805V390.727C337.214 390.914 337.365 391.065 337.552 391.065H339.474C339.661 391.065 339.812 390.914 339.812 390.727V388.805C339.812 388.618 339.661 388.467 339.474 388.467Z" fill="#F4F9FE"/>
<path id="Vector_165" d="M359.903 388.767H358.424C358.281 388.767 358.165 388.883 358.165 389.027V390.505C358.165 390.649 358.281 390.765 358.424 390.765H359.903C360.047 390.765 360.163 390.649 360.163 390.505V389.027C360.163 388.883 360.047 388.767 359.903 388.767Z" fill="#F6FAFF"/>
<path id="Vector_166" d="M381.235 387.847H378.394C378.118 387.847 377.895 388.07 377.895 388.346V391.186C377.895 391.462 378.118 391.685 378.394 391.685H381.235C381.51 391.685 381.734 391.462 381.734 391.186V388.346C381.734 388.07 381.51 387.847 381.235 387.847Z" fill="#F0F6FD"/>
<path id="Vector_167" d="M401.559 388.287H399.371C399.158 388.287 398.986 388.459 398.986 388.672V390.86C398.986 391.073 399.158 391.245 399.371 391.245H401.559C401.771 391.245 401.944 391.073 401.944 390.86V388.672C401.944 388.459 401.771 388.287 401.559 388.287Z" fill="#F3F8FE"/>
<path id="Vector_168" d="M423.722 386.244H418.509C418.003 386.244 417.593 386.654 417.593 387.16V392.373C417.593 392.878 418.003 393.288 418.509 393.288H423.722C424.228 393.288 424.638 392.878 424.638 392.373V387.16C424.638 386.654 424.228 386.244 423.722 386.244Z" fill="#DCEAF6"/>
<path id="Vector_169" d="M446.375 383.538H437.157C436.263 383.538 435.538 384.263 435.538 385.157V394.375C435.538 395.269 436.263 395.994 437.157 395.994H446.375C447.269 395.994 447.994 395.269 447.994 394.375V385.157C447.994 384.263 447.269 383.538 446.375 383.538Z" fill="#86BCDC"/>
</g>
<g id="legend">
<g id="Group_27">
<g id="Group_28">
<g id="Group_29">
<g id="Group_30">
<path id="Vector_170" d="M509 167.016H508V168.016H509V167.016Z" stroke="#CCCCCC"/>
<text id="17.0" fill="black" xml:space="preserve" style="white-space: pre" font-family="Roboto" font-size="10" letter-spacing="0em"><tspan x="532" y="171.934">17.0</tspan></text>
</g>
<g id="Group_31">
<path id="Vector_171" d="M527 188.031H508V207.031H527V188.031Z" stroke="#CCCCCC"/>
<text id="3731.0" fill="black" xml:space="preserve" style="white-space: pre" font-family="Roboto" font-size="10" letter-spacing="0em"><tspan x="532" y="201.949">3731.0</tspan></text>
</g>
</g>
<text id="AnzUmzuWir" fill="black" xml:space="preserve" style="white-space: pre" font-family="Roboto" font-size="12" letter-spacing="0em"><tspan x="508" y="150.102">AnzUmzuWir</tspan></text>
</g>
<g id="Group_32">
<g id="Group_33">
<g id="Group_34">
<path id="Vector_172" d="M509 255.859H508V265.859H509V255.859Z" fill="#F7FBFF"/>
<text id="17.0_2" fill="black" xml:space="preserve" style="white-space: pre" font-family="Roboto" font-size="10" letter-spacing="0em"><tspan x="508" y="278.277">17.0</tspan></text>
</g>
<g id="Group_35">
<path id="Vector_173" d="M510 255.859H509V265.859H510V255.859Z" fill="#F6FAFF"/>
</g>
<g id="Group_36">
<path id="Vector_174" d="M511 255.859H510V265.859H511V255.859Z" fill="#F5FAFE"/>
</g>
<g id="Group_37">
<path id="Vector_175" d="M512 255.859H511V265.859H512V255.859Z" fill="#F4F9FE"/>
</g>
<g id="Group_38">
<path id="Vector_176" d="M513 255.859H512V265.859H513V255.859Z" fill="#F3F8FE"/>
</g>
<g id="Group_39">
<path id="Vector_177" d="M514 255.859H513V265.859H514V255.859Z" fill="#F2F8FD"/>
</g>
<g id="Group_40">
<path id="Vector_178" d="M515 255.859H514V265.859H515V255.859Z" fill="#F1F7FD"/>
</g>
<g id="Group_41">
<path id="Vector_179" d="M516 255.859H515V265.859H516V255.859Z" fill="#F0F6FD"/>
</g>
<g id="Group_42">
<path id="Vector_180" d="M517 255.859H516V265.859H517V255.859Z" fill="#EFF6FC"/>
</g>
<g id="Group_43">
<path id="Vector_181" d="M518 255.859H517V265.859H518V255.859Z" fill="#EDF5FC"/>
</g>
<g id="Group_44">
<path id="Vector_182" d="M519 255.859H518V265.859H519V255.859Z" fill="#ECF4FC"/>
</g>
<g id="Group_45">
<path id="Vector_183" d="M520 255.859H519V265.859H520V255.859Z" fill="#EBF4FB"/>
</g>
<g id="Group_46">
<path id="Vector_184" d="M521 255.859H520V265.859H521V255.859Z" fill="#EAF3FB"/>
</g>
<g id="Group_47">
<path id="Vector_185" d="M522 255.859H521V265.859H522V255.859Z" fill="#E9F2FB"/>
</g>
<g id="Group_48">
<path id="Vector_186" d="M523 255.859H522V265.859H523V255.859Z" fill="#E8F2FA"/>
</g>
<g id="Group_49">
<path id="Vector_187" d="M524 255.859H523V265.859H524V255.859Z" fill="#E7F1FA"/>
</g>
<g id="Group_50">
<path id="Vector_188" d="M525 255.859H524V265.859H525V255.859Z" fill="#E6F0FA"/>
</g>
<g id="Group_51">
<path id="Vector_189" d="M526 255.859H525V265.859H526V255.859Z" fill="#E5EFF9"/>
</g>
<g id="Group_52">
<path id="Vector_190" d="M527 255.859H526V265.859H527V255.859Z" fill="#E4EFF9"/>
</g>
<g id="Group_53">
<path id="Vector_191" d="M528 255.859H527V265.859H528V255.859Z" fill="#E3EEF9"/>
</g>
<g id="Group_54">
<path id="Vector_192" d="M529 255.859H528V265.859H529V255.859Z" fill="#E2EDF8"/>
</g>
<g id="Group_55">
<path id="Vector_193" d="M530 255.859H529V265.859H530V255.859Z" fill="#E1EDF8"/>
</g>
<g id="Group_56">
<path id="Vector_194" d="M531 255.859H530V265.859H531V255.859Z" fill="#E0ECF8"/>
</g>
<g id="Group_57">
<path id="Vector_195" d="M532 255.859H531V265.859H532V255.859Z" fill="#DFEBF7"/>
</g>
<g id="Group_58">
<path id="Vector_196" d="M533 255.859H532V265.859H533V255.859Z" fill="#DEEBF7"/>
</g>
<g id="Group_59">
<path id="Vector_197" d="M534 255.859H533V265.859H534V255.859Z" fill="#DDEAF7"/>
</g>
<g id="Group_60">
<path id="Vector_198" d="M535 255.859H534V265.859H535V255.859Z" fill="#DCE9F6"/>
</g>
<g id="Group_61">
<path id="Vector_199" d="M536 255.859H535V265.859H536V255.859Z" fill="#DBE9F6"/>
</g>
<g id="Group_62">
<path id="Vector_200" d="M537 255.859H536V265.859H537V255.859Z" fill="#DAE8F6"/>
</g>
<g id="Group_63">
<path id="Vector_201" d="M538 255.859H537V265.859H538V255.859Z" fill="#D9E7F5"/>
</g>
<g id="Group_64">
<path id="Vector_202" d="M539 255.859H538V265.859H539V255.859Z" fill="#D8E7F5"/>
</g>
<g id="Group_65">
<path id="Vector_203" d="M540 255.859H539V265.859H540V255.859Z" fill="#D6E6F4"/>
</g>
<g id="Group_66">
<path id="Vector_204" d="M541 255.859H540V265.859H541V255.859Z" fill="#D5E5F4"/>
</g>
<g id="Group_67">
<path id="Vector_205" d="M542 255.859H541V265.859H542V255.859Z" fill="#D4E5F4"/>
</g>
<g id="Group_68">
<path id="Vector_206" d="M543 255.859H542V265.859H543V255.859Z" fill="#D3E4F3"/>
</g>
<g id="Group_69">
<path id="Vector_207" d="M544 255.859H543V265.859H544V255.859Z" fill="#D2E3F3"/>
</g>
<g id="Group_70">
<path id="Vector_208" d="M545 255.859H544V265.859H545V255.859Z" fill="#D1E3F3"/>
</g>
<g id="Group_71">
<path id="Vector_209" d="M546 255.859H545V265.859H546V255.859Z" fill="#D0E2F2"/>
</g>
<g id="Group_72">
<path id="Vector_210" d="M547 255.859H546V265.859H547V255.859Z" fill="#CFE1F2"/>
</g>
<g id="Group_73">
<path id="Vector_211" d="M548 255.859H547V265.859H548V255.859Z" fill="#CEE1F2"/>
</g>
<g id="Group_74">
<path id="Vector_212" d="M549 255.859H548V265.859H549V255.859Z" fill="#CCE0F1"/>
</g>
<g id="Group_75">
<path id="Vector_213" d="M550 255.859H549V265.859H550V255.859Z" fill="#CBDFF1"/>
</g>
<g id="Group_76">
<path id="Vector_214" d="M551 255.859H550V265.859H551V255.859Z" fill="#CADEF0"/>
</g>
<g id="Group_77">
<path id="Vector_215" d="M552 255.859H551V265.859H552V255.859Z" fill="#C9DEF0"/>
</g>
<g id="Group_78">
<path id="Vector_216" d="M553 255.859H552V265.859H553V255.859Z" fill="#C8DDEF"/>
</g>
<g id="Group_79">
<path id="Vector_217" d="M554 255.859H553V265.859H554V255.859Z" fill="#C6DCEF"/>
</g>
<g id="Group_80">
<path id="Vector_218" d="M555 255.859H554V265.859H555V255.859Z" fill="#C5DCEF"/>
</g>
<g id="Group_81">
<path id="Vector_219" d="M556 255.859H555V265.859H556V255.859Z" fill="#C4DBEE"/>
</g>
<g id="Group_82">
<path id="Vector_220" d="M557 255.859H556V265.859H557V255.859Z" fill="#C2DAEE"/>
</g>
<g id="Group_83">
<path id="Vector_221" d="M558 255.859H557V265.859H558V255.859Z" fill="#C1DAED"/>
</g>
<g id="Group_84">
<path id="Vector_222" d="M559 255.859H558V265.859H559V255.859Z" fill="#C0D9ED"/>
</g>
<g id="Group_85">
<path id="Vector_223" d="M560 255.859H559V265.859H560V255.859Z" fill="#BED8EC"/>
</g>
<g id="Group_86">
<path id="Vector_224" d="M561 255.859H560V265.859H561V255.859Z" fill="#BDD7EC"/>
</g>
<g id="Group_87">
<path id="Vector_225" d="M562 255.859H561V265.859H562V255.859Z" fill="#BBD7EB"/>
</g>
<g id="Group_88">
<path id="Vector_226" d="M563 255.859H562V265.859H563V255.859Z" fill="#BAD6EB"/>
</g>
<g id="Group_89">
<path id="Vector_227" d="M564 255.859H563V265.859H564V255.859Z" fill="#B8D5EA"/>
</g>
<g id="Group_90">
<path id="Vector_228" d="M565 255.859H564V265.859H565V255.859Z" fill="#B6D5EA"/>
</g>
<g id="Group_91">
<path id="Vector_229" d="M566 255.859H565V265.859H566V255.859Z" fill="#B5D4E9"/>
</g>
<g id="Group_92">
<path id="Vector_230" d="M567 255.859H566V265.859H567V255.859Z" fill="#B3D3E9"/>
</g>
<g id="Group_93">
<path id="Vector_231" d="M568 255.859H567V265.859H568V255.859Z" fill="#B2D2E8"/>
</g>
<g id="Group_94">
<path id="Vector_232" d="M569 255.859H568V265.859H569V255.859Z" fill="#B0D2E7"/>
</g>
<g id="Group_95">
<path id="Vector_233" d="M570 255.859H569V265.859H570V255.859Z" fill="#AED1E7"/>
</g>
<g id="Group_96">
<path id="Vector_234" d="M571 255.859H570V265.859H571V255.859Z" fill="#ACD0E6"/>
</g>
<g id="Group_97">
<path id="Vector_235" d="M572 255.859H571V265.859H572V255.859Z" fill="#ABCFE6"/>
</g>
<g id="Group_98">
<path id="Vector_236" d="M573 255.859H572V265.859H573V255.859Z" fill="#A9CEE5"/>
</g>
<g id="Group_99">
<path id="Vector_237" d="M574 255.859H573V265.859H574V255.859Z" fill="#A7CDE5"/>
</g>
<g id="Group_100">
<path id="Vector_238" d="M575 255.859H574V265.859H575V255.859Z" fill="#A5CDE4"/>
</g>
<g id="Group_101">
<path id="Vector_239" d="M576 255.859H575V265.859H576V255.859Z" fill="#A3CCE4"/>
</g>
<g id="Group_102">
<path id="Vector_240" d="M577 255.859H576V265.859H577V255.859Z" fill="#A2CBE3"/>
</g>
<g id="Group_103">
<path id="Vector_241" d="M578 255.859H577V265.859H578V255.859Z" fill="#A0CAE3"/>
</g>
<g id="Group_104">
<path id="Vector_242" d="M579 255.859H578V265.859H579V255.859Z" fill="#9EC9E2"/>
</g>
<g id="Group_105">
<path id="Vector_243" d="M580 255.859H579V265.859H580V255.859Z" fill="#9CC8E1"/>
</g>
<g id="Group_106">
<path id="Vector_244" d="M581 255.859H580V265.859H581V255.859Z" fill="#9AC7E1"/>
</g>
<g id="Group_107">
<path id="Vector_245" d="M582 255.859H581V265.859H582V255.859Z" fill="#98C6E0"/>
</g>
<g id="Group_108">
<path id="Vector_246" d="M583 255.859H582V265.859H583V255.859Z" fill="#96C5E0"/>
</g>
<g id="Group_109">
<path id="Vector_247" d="M584 255.859H583V265.859H584V255.859Z" fill="#94C4DF"/>
</g>
<g id="Group_110">
<path id="Vector_248" d="M585 255.859H584V265.859H585V255.859Z" fill="#92C3DF"/>
</g>
<g id="Group_111">
<path id="Vector_249" d="M586 255.859H585V265.859H586V255.859Z" fill="#90C2DE"/>
</g>
<g id="Group_112">
<path id="Vector_250" d="M587 255.859H586V265.859H587V255.859Z" fill="#8EC1DE"/>
</g>
<g id="Group_113">
<path id="Vector_251" d="M588 255.859H587V265.859H588V255.859Z" fill="#8CC0DD"/>
</g>
<g id="Group_114">
<path id="Vector_252" d="M589 255.859H588V265.859H589V255.859Z" fill="#8ABFDD"/>
</g>
<g id="Group_115">
<path id="Vector_253" d="M590 255.859H589V265.859H590V255.859Z" fill="#88BEDC"/>
</g>
<g id="Group_116">
<path id="Vector_254" d="M591 255.859H590V265.859H591V255.859Z" fill="#86BDDC"/>
</g>
<g id="Group_117">
<path id="Vector_255" d="M592 255.859H591V265.859H592V255.859Z" fill="#84BBDB"/>
</g>
<g id="Group_118">
<path id="Vector_256" d="M593 255.859H592V265.859H593V255.859Z" fill="#82BADB"/>
</g>
<g id="Group_119">
<path id="Vector_257" d="M594 255.859H593V265.859H594V255.859Z" fill="#80B9DA"/>
</g>
<g id="Group_120">
<path id="Vector_258" d="M595 255.859H594V265.859H595V255.859Z" fill="#7EB8DA"/>
</g>
<g id="Group_121">
<path id="Vector_259" d="M596 255.859H595V265.859H596V255.859Z" fill="#7CB7D9"/>
</g>
<g id="Group_122">
<path id="Vector_260" d="M597 255.859H596V265.859H597V255.859Z" fill="#7AB6D9"/>
</g>
<g id="Group_123">
<path id="Vector_261" d="M598 255.859H597V265.859H598V255.859Z" fill="#78B4D8"/>
</g>
<g id="Group_124">
<path id="Vector_262" d="M599 255.859H598V265.859H599V255.859Z" fill="#76B3D8"/>
</g>
<g id="Group_125">
<path id="Vector_263" d="M600 255.859H599V265.859H600V255.859Z" fill="#74B2D7"/>
</g>
<g id="Group_126">
<path id="Vector_264" d="M601 255.859H600V265.859H601V255.859Z" fill="#72B1D7"/>
</g>
<g id="Group_127">
<path id="Vector_265" d="M602 255.859H601V265.859H602V255.859Z" fill="#70B0D6"/>
</g>
<g id="Group_128">
<path id="Vector_266" d="M603 255.859H602V265.859H603V255.859Z" fill="#6EAFD5"/>
</g>
<g id="Group_129">
<path id="Vector_267" d="M604 255.859H603V265.859H604V255.859Z" fill="#6CADD5"/>
</g>
<g id="Group_130">
<path id="Vector_268" d="M605 255.859H604V265.859H605V255.859Z" fill="#6AACD4"/>
</g>
<g id="Group_131">
<path id="Vector_269" d="M606 255.859H605V265.859H606V255.859Z" fill="#68ABD4"/>
</g>
<g id="Group_132">
<path id="Vector_270" d="M607 255.859H606V265.859H607V255.859Z" fill="#66AAD3"/>
</g>
<g id="Group_133">
<path id="Vector_271" d="M608 255.859H607V265.859H608V255.859Z" fill="#64A9D3"/>
</g>
<g id="Group_134">
<path id="Vector_272" d="M609 255.859H608V265.859H609V255.859Z" fill="#62A7D2"/>
</g>
<g id="Group_135">
<path id="Vector_273" d="M610 255.859H609V265.859H610V255.859Z" fill="#60A6D1"/>
</g>
<g id="Group_136">
<path id="Vector_274" d="M611 255.859H610V265.859H611V255.859Z" fill="#5FA5D1"/>
</g>
<g id="Group_137">
<path id="Vector_275" d="M612 255.859H611V265.859H612V255.859Z" fill="#5DA4D0"/>
</g>
<g id="Group_138">
<path id="Vector_276" d="M613 255.859H612V265.859H613V255.859Z" fill="#5BA3CF"/>
</g>
<g id="Group_139">
<path id="Vector_277" d="M614 255.859H613V265.859H614V255.859Z" fill="#59A1CF"/>
</g>
<g id="Group_140">
<path id="Vector_278" d="M615 255.859H614V265.859H615V255.859Z" fill="#57A0CE"/>
</g>
<g id="Group_141">
<path id="Vector_279" d="M616 255.859H615V265.859H616V255.859Z" fill="#569FCD"/>
</g>
<g id="Group_142">
<path id="Vector_280" d="M617 255.859H616V265.859H617V255.859Z" fill="#549ECD"/>
</g>
<g id="Group_143">
<path id="Vector_281" d="M618 255.859H617V265.859H618V255.859Z" fill="#529DCC"/>
</g>
<g id="Group_144">
<path id="Vector_282" d="M619 255.859H618V265.859H619V255.859Z" fill="#519BCB"/>
</g>
<g id="Group_145">
<path id="Vector_283" d="M620 255.859H619V265.859H620V255.859Z" fill="#4F9ACB"/>
</g>
<g id="Group_146">
<path id="Vector_284" d="M621 255.859H620V265.859H621V255.859Z" fill="#4D99CA"/>
</g>
<g id="Group_147">
<path id="Vector_285" d="M622 255.859H621V265.859H622V255.859Z" fill="#4C98C9"/>
</g>
<g id="Group_148">
<path id="Vector_286" d="M623 255.859H622V265.859H623V255.859Z" fill="#4A96C9"/>
</g>
<g id="Group_149">
<path id="Vector_287" d="M624 255.859H623V265.859H624V255.859Z" fill="#4895C8"/>
</g>
<g id="Group_150">
<path id="Vector_288" d="M625 255.859H624V265.859H625V255.859Z" fill="#4794C7"/>
</g>
<g id="Group_151">
<path id="Vector_289" d="M626 255.859H625V265.859H626V255.859Z" fill="#4593C7"/>
</g>
<g id="Group_152">
<path id="Vector_290" d="M627 255.859H626V265.859H627V255.859Z" fill="#4491C6"/>
</g>
<g id="Group_153">
<path id="Vector_291" d="M628 255.859H627V265.859H628V255.859Z" fill="#4290C5"/>
</g>
<g id="Group_154">
<path id="Vector_292" d="M629 255.859H628V265.859H629V255.859Z" fill="#408FC5"/>
</g>
<g id="Group_155">
<path id="Vector_293" d="M630 255.859H629V265.859H630V255.859Z" fill="#3F8DC4"/>
</g>
<g id="Group_156">
<path id="Vector_294" d="M631 255.859H630V265.859H631V255.859Z" fill="#3D8CC3"/>
</g>
<g id="Group_157">
<path id="Vector_295" d="M632 255.859H631V265.859H632V255.859Z" fill="#3C8BC2"/>
</g>
<g id="Group_158">
<path id="Vector_296" d="M633 255.859H632V265.859H633V255.859Z" fill="#3A89C2"/>
</g>
<g id="Group_159">
<path id="Vector_297" d="M634 255.859H633V265.859H634V255.859Z" fill="#3988C1"/>
</g>
<g id="Group_160">
<path id="Vector_298" d="M635 255.859H634V265.859H635V255.859Z" fill="#3787C0"/>
</g>
<g id="Group_161">
<path id="Vector_299" d="M636 255.859H635V265.859H636V255.859Z" fill="#3685C0"/>
</g>
<g id="Group_162">
<path id="Vector_300" d="M637 255.859H636V265.859H637V255.859Z" fill="#3584BF"/>
</g>
<g id="Group_163">
<path id="Vector_301" d="M638 255.859H637V265.859H638V255.859Z" fill="#3383BE"/>
</g>
<g id="Group_164">
<path id="Vector_302" d="M639 255.859H638V265.859H639V255.859Z" fill="#3281BD"/>
</g>
<g id="Group_165">
<path id="Vector_303" d="M640 255.859H639V265.859H640V255.859Z" fill="#3080BD"/>
</g>
<g id="Group_166">
<path id="Vector_304" d="M641 255.859H640V265.859H641V255.859Z" fill="#2F7FBC"/>
</g>
<g id="Group_167">
<path id="Vector_305" d="M642 255.859H641V265.859H642V255.859Z" fill="#2E7DBB"/>
</g>
<g id="Group_168">
<path id="Vector_306" d="M643 255.859H642V265.859H643V255.859Z" fill="#2C7CBA"/>
</g>
<g id="Group_169">
<path id="Vector_307" d="M644 255.859H643V265.859H644V255.859Z" fill="#2B7AB9"/>
</g>
<g id="Group_170">
<path id="Vector_308" d="M645 255.859H644V265.859H645V255.859Z" fill="#2A79B9"/>
</g>
<g id="Group_171">
<path id="Vector_309" d="M646 255.859H645V265.859H646V255.859Z" fill="#2878B8"/>
</g>
<g id="Group_172">
<path id="Vector_310" d="M647 255.859H646V265.859H647V255.859Z" fill="#2776B7"/>
</g>
<g id="Group_173">
<path id="Vector_311" d="M648 255.859H647V265.859H648V255.859Z" fill="#2675B6"/>
</g>
<g id="Group_174">
<path id="Vector_312" d="M649 255.859H648V265.859H649V255.859Z" fill="#2574B5"/>
</g>
<g id="Group_175">
<path id="Vector_313" d="M650 255.859H649V265.859H650V255.859Z" fill="#2372B4"/>
</g>
<g id="Group_176">
<path id="Vector_314" d="M651 255.859H650V265.859H651V255.859Z" fill="#2271B3"/>
</g>
<g id="Group_177">
<path id="Vector_315" d="M652 255.859H651V265.859H652V255.859Z" fill="#216FB3"/>
</g>
<g id="Group_178">
<path id="Vector_316" d="M653 255.859H652V265.859H653V255.859Z" fill="#206EB2"/>
</g>
<g id="Group_179">
<path id="Vector_317" d="M654 255.859H653V265.859H654V255.859Z" fill="#1E6DB1"/>
</g>
<g id="Group_180">
<path id="Vector_318" d="M655 255.859H654V265.859H655V255.859Z" fill="#1D6BB0"/>
</g>
<g id="Group_181">
<path id="Vector_319" d="M656 255.859H655V265.859H656V255.859Z" fill="#1C6AAF"/>
</g>
<g id="Group_182">
<path id="Vector_320" d="M657 255.859H656V265.859H657V255.859Z" fill="#1B69AE"/>
</g>
<g id="Group_183">
<path id="Vector_321" d="M658 255.859H657V265.859H658V255.859Z" fill="#1A67AD"/>
</g>
<g id="Group_184">
<path id="Vector_322" d="M659 255.859H658V265.859H659V255.859Z" fill="#1966AC"/>
</g>
<g id="Group_185">
<path id="Vector_323" d="M660 255.859H659V265.859H660V255.859Z" fill="#1864AB"/>
</g>
<g id="Group_186">
<path id="Vector_324" d="M661 255.859H660V265.859H661V255.859Z" fill="#1763AA"/>
</g>
<g id="Group_187">
<path id="Vector_325" d="M662 255.859H661V265.859H662V255.859Z" fill="#1662A8"/>
</g>
<g id="Group_188">
<path id="Vector_326" d="M663 255.859H662V265.859H663V255.859Z" fill="#1560A7"/>
</g>
<g id="Group_189">
<path id="Vector_327" d="M664 255.859H663V265.859H664V255.859Z" fill="#145FA6"/>
</g>
<g id="Group_190">
<path id="Vector_328" d="M665 255.859H664V265.859H665V255.859Z" fill="#135EA5"/>
</g>
<g id="Group_191">
<path id="Vector_329" d="M666 255.859H665V265.859H666V255.859Z" fill="#125CA4"/>
</g>
<g id="Group_192">
<path id="Vector_330" d="M667 255.859H666V265.859H667V255.859Z" fill="#115BA2"/>
</g>
<g id="Group_193">
<path id="Vector_331" d="M668 255.859H667V265.859H668V255.859Z" fill="#105AA1"/>
</g>
<g id="Group_194">
<path id="Vector_332" d="M669 255.859H668V265.859H669V255.859Z" fill="#1058A0"/>
</g>
<g id="Group_195">
<path id="Vector_333" d="M670 255.859H669V265.859H670V255.859Z" fill="#0F579E"/>
</g>
<g id="Group_196">
<path id="Vector_334" d="M671 255.859H670V265.859H671V255.859Z" fill="#0E559D"/>
</g>
<g id="Group_197">
<path id="Vector_335" d="M672 255.859H671V265.859H672V255.859Z" fill="#0E549C"/>
</g>
<g id="Group_198">
<path id="Vector_336" d="M673 255.859H672V265.859H673V255.859Z" fill="#0D539A"/>
</g>
<g id="Group_199">
<path id="Vector_337" d="M674 255.859H673V265.859H674V255.859Z" fill="#0C5199"/>
</g>
<g id="Group_200">
<path id="Vector_338" d="M675 255.859H674V265.859H675V255.859Z" fill="#0C5097"/>
</g>
<g id="Group_201">
<path id="Vector_339" d="M676 255.859H675V265.859H676V255.859Z" fill="#0B4F95"/>
</g>
<g id="Group_202">
<path id="Vector_340" d="M677 255.859H676V265.859H677V255.859Z" fill="#0B4D94"/>
</g>
<g id="Group_203">
<path id="Vector_341" d="M678 255.859H677V265.859H678V255.859Z" fill="#0B4C92"/>
</g>
<g id="Group_204">
<path id="Vector_342" d="M679 255.859H678V265.859H679V255.859Z" fill="#0A4A90"/>
</g>
<g id="Group_205">
<path id="Vector_343" d="M680 255.859H679V265.859H680V255.859Z" fill="#0A498F"/>
</g>
<g id="Group_206">
<path id="Vector_344" d="M681 255.859H680V265.859H681V255.859Z" fill="#0A488D"/>
</g>
<g id="Group_207">
<path id="Vector_345" d="M682 255.859H681V265.859H682V255.859Z" fill="#09468B"/>
</g>
<g id="Group_208">
<path id="Vector_346" d="M683 255.859H682V265.859H683V255.859Z" fill="#094589"/>
</g>
<g id="Group_209">
<path id="Vector_347" d="M684 255.859H683V265.859H684V255.859Z" fill="#094487"/>
</g>
<g id="Group_210">
<path id="Vector_348" d="M685 255.859H684V265.859H685V255.859Z" fill="#094285"/>
</g>
<g id="Group_211">
<path id="Vector_349" d="M686 255.859H685V265.859H686V255.859Z" fill="#094183"/>
</g>
<g id="Group_212">
<path id="Vector_350" d="M687 255.859H686V265.859H687V255.859Z" fill="#083F81"/>
</g>
<g id="Group_213">
<path id="Vector_351" d="M688 255.859H687V265.859H688V255.859Z" fill="#083E7F"/>
</g>
<g id="Group_214">
<path id="Vector_352" d="M689 255.859H688V265.859H689V255.859Z" fill="#083D7D"/>
</g>
<g id="Group_215">
<path id="Vector_353" d="M690 255.859H689V265.859H690V255.859Z" fill="#083B7B"/>
</g>
<g id="Group_216">
<path id="Vector_354" d="M691 255.859H690V265.859H691V255.859Z" fill="#083A79"/>
</g>
<g id="Group_217">
<path id="Vector_355" d="M692 255.859H691V265.859H692V255.859Z" fill="#083877"/>
</g>
<g id="Group_218">
<path id="Vector_356" d="M693 255.859H692V265.859H693V255.859Z" fill="#083775"/>
</g>
<g id="Group_219">
<path id="Vector_357" d="M694 255.859H693V265.859H694V255.859Z" fill="#083673"/>
</g>
<g id="Group_220">
<path id="Vector_358" d="M695 255.859H694V265.859H695V255.859Z" fill="#083471"/>
</g>
<g id="Group_221">
<path id="Vector_359" d="M696 255.859H695V265.859H696V255.859Z" fill="#08336F"/>
</g>
<g id="Group_222">
<path id="Vector_360" d="M697 255.859H696V265.859H697V255.859Z" fill="#08316D"/>
</g>
<g id="Group_223">
<path id="Vector_361" d="M698 255.859H697V265.859H698V255.859Z" fill="#08306B"/>
<text id="3731.0_2" fill="black" xml:space="preserve" style="white-space: pre" font-family="Roboto" font-size="10" letter-spacing="0em"><tspan x="666" y="278.277">3731.0</tspan></text>
</g>
</g>
<text id="AnzUmzuWir_2" fill="black" xml:space="preserve" style="white-space: pre" font-family="Roboto" font-size="12" letter-spacing="0em"><tspan x="508" y="238.945">AnzUmzuWir</tspan></text>
</g>
</g>
</g>
</g>
</g>
<defs>
<clipPath id="clip0">
<rect width="600" height="400" fill="white" transform="translate(103 51)"/>
</clipPath>
</defs>
</svg>
